{
  "accessors": [
    {
      "bufferView": 2,
      "componentType": 5126,
      "count": 4597,
      "max": [
        355.9413146972656,
        277.3552551269531,
        4.980712890625
      ],
      "min": [
        -342.16851806640625,
        -263.9792785644531,
        -3.7115347385406494
      ],
      "type": "VEC3"
    },
    {
      "bufferView": 2,
      "byteOffset": 55164,
      "componentType": 5126,
      "count": 4597,
      "max": [
        1.0,
        1.0,
        1.0
      ],
      "min": [
        -1.0,
        -1.0,
        -0.9922366142272949
      ],
      "type": "VEC3"
    },
    {
      "bufferView": 3,
      "componentType": 5126,
      "count": 4597,
      "max": [
        1.0,
        1.0,
        1.0,
        1.0
      ],
      "min": [
        -1.0,
        -1.0,
        -1.0,
        1.0
      ],
      "type": "VEC4"
    },
    {
      "bufferView": 1,
      "componentType": 5126,
      "count": 4597,
      "max": [
        1.0000723600387573,
        0.9996743202209473
      ],
      "min": [
        0.0003256552736274898,
        0.08883929252624512
      ],
      "type": "VEC2"
    },
    {
      "bufferView": 0,
      "componentType": 5125,
      "count": 19800,
      "type": "SCALAR"
    },
    {
      "bufferView": 2,
      "byteOffset": 110328,
      "componentType": 5126,
      "count": 2720,
      "max": [
        585.6380004882813,
        19.877302169799805,
        0.9603484272956848
      ],
      "min": [
        -86.92560577392578,
        -398.045654296875,
        -0.9603484272956848
      ],
      "type": "VEC3"
    },
    {
      "bufferView": 2,
      "byteOffset": 142968,
      "componentType": 5126,
      "count": 2720,
      "max": [
        1.0,
        1.0,
        1.0
      ],
      "min": [
        -1.0,
        -1.0,
        -0.0075749983079731464
      ],
      "type": "VEC3"
    },
    {
      "bufferView": 3,
      "byteOffset": 73552,
      "componentType": 5126,
      "count": 2720,
      "max": [
        1.0,
        1.0,
        0.9069282412528992,
        1.0
      ],
      "min": [
        -1.0,
        -1.0,
        -0.9069282412528992,
        1.0
      ],
      "type": "VEC4"
    },
    {
      "bufferView": 1,
      "byteOffset": 36776,
      "componentType": 5126,
      "count": 2720,
      "max": [
        0.3763558566570282,
        0.09464740753173828
      ],
      "min": [
        0.01842004433274269,
        0.0015298128128051758
      ],
      "type": "VEC2"
    },
    {
      "bufferView": 0,
      "byteOffset": 79200,
      "componentType": 5125,
      "count": 6960,
      "type": "SCALAR"
    }
  ],
  "asset": {
    "extras": {
      "author": "adventurer (https://sketchfab.com/ahmagh2e)",
      "license": "CC-BY-4.0 (http://creativecommons.org/licenses/by/4.0/)",
      "source": "https://sketchfab.com/3d-models/power-cable-wiring-22f6ca980cfa4041aaabb37f258793c9",
      "title": "Power Cable Wiring"
    },
    "generator": "Sketchfab-16.8.0",
    "version": "2.0"
  },
  "bufferViews": [
    {
      "buffer": 0,
      "byteLength": 107040,
      "name": "floatBufferViews",
      "target": 34963
    },
    {
      "buffer": 0,
      "byteLength": 58536,
      "byteOffset": 107040,
      "byteStride": 8,
      "name": "floatBufferViews",
      "target": 34962
    },
    {
      "buffer": 0,
      "byteLength": 175608,
      "byteOffset": 165576,
      "byteStride": 12,
      "name": "floatBufferViews",
      "target": 34962
    },
    {
      "buffer": 0,
      "byteLength": 117072,
      "byteOffset": 341184,
      "byteStride": 16,
      "name": "floatBufferViews",
      "target": 34962
    }
  ],
  "buffers": [
    {
      "byteLength": 458256,
      "uri": "scene.bin"
    }
  ],
  "images": [
    {
      "uri": "textures/Scene_-_Root_baseColor.png"
    },
    {
      "uri": "textures/Scene_-_Root_metallicRoughness.png"
    },
    {
      "uri": "textures/Scene_-_Root_normal.png"
    }
  ],
  "materials": [
    {
      "doubleSided": true,
      "name": "Scene_-_Root",
      "normalTexture": {
        "index": 2
      },
      "pbrMetallicRoughness": {
        "baseColorTexture": {
          "index": 0
        },
        "metallicFactor": 0.0,
        "metallicRoughnessTexture": {
          "index": 1
        }
      }
    }
  ],
  "meshes": [
    {
      "name": "Sweep__0",
      "primitives": [
        {
          "attributes": {
            "NORMAL": 1,
            "POSITION": 0,
            "TANGENT": 2,
            "TEXCOORD_0": 3
          },
          "indices": 4,
          "material": 0,
          "mode": 4
        }
      ]
    },
    {
      "name": "Null__0",
      "primitives": [
        {
          "attributes": {
            "NORMAL": 6,
            "POSITION": 5,
            "TANGENT": 7,
            "TEXCOORD_0": 8
          },
          "indices": 9,
          "material": 0,
          "mode": 4
        }
      ]
    }
  ],
  "nodes": [
    {
      "children": [
        1
      ],
      "matrix": [
        1.0,
        0.0,
        0.0,
        0.0,
        0.0,
        2.220446049250313e-16,
        -1.0,
        0.0,
        0.0,
        1.0,
        2.220446049250313e-16,
        0.0,
        0.0,
        0.0,
        0.0,
        1.0
      ],
      "name": "Sketchfab_model"
    },
    {
      "children": [
        2
      ],
      "matrix": [
        0.009999999776482582,
        0.0,
        0.0,
        0.0,
        0.0,
        0.0,
        0.009999999776482582,
        0.0,
        0.0,
        -0.009999999776482582,
        0.0,
        0.0,
        0.0,
        0.0,
        0.0,
        1.0
      ],
      "name": "b080bf7c24c64541b9a1209ffb9d34f9.fbx"
    },
    {
      "children": [
        3,
        5
      ],
      "name": "RootNode"
    },
    {
      "children": [
        4
      ],
      "matrix": [
        1.0,
        0.0,
        0.0,
        0.0,
        0.0,
        1.0,
        0.0,
        0.0,
        0.0,
        0.0,
        1.0,
        0.0,
        6.720027923583984,
        4.924712657928467,
        0.25486013293266296,
        1.0
      ],
      "name": "Sweep"
    },
    {
      "mesh": 0,
      "name": "Sweep__0"
    },
    {
      "children": [
        6
      ],
      "matrix": [
        1.0,
        0.0,
        0.0,
        0.0,
        0.0,
        1.0,
        0.0,
        0.0,
        0.0,
        0.0,
        1.0,
        0.0,
        -236.17324829101563,
        224.46234130859375,
        0.3216356337070465,
        1.0
      ],
      "name": "Null"
    },
    {
      "mesh": 1,
      "name": "Null__0"
    }
  ],
  "samplers": [
    {
      "magFilter": 9729,
      "minFilter": 9987,
      "wrapS": 10497,
      "wrapT": 10497
    }
  ],
  "scene": 0,
  "scenes": [
    {
      "name": "Sketchfab_Scene",
      "nodes": [
        0
      ]
    }
  ],
  "textures": [
    {
      "sampler": 0,
      "source": 0
    },
    {
      "sampler": 0,
      "source": 1
    },
    {
      "sampler": 0,
      "source": 2
    }
  ]
}
