{
  "accessors": [
    {
      "bufferView": 3,
      "componentType": 5126,
      "count": 4696,
      "max": [
        10.218429565429688,
        27.96379280090332,
        4.83922815322876
      ],
      "min": [
        -12.41565990447998,
        -0.15468508005142212,
        -4.048555374145508
      ],
      "type": "VEC3"
    },
    {
      "bufferView": 3,
      "byteOffset": 56352,
      "componentType": 5126,
      "count": 4696,
      "max": [
        0.9995673894882202,
        0.9993998408317566,
        0.9998394250869751
      ],
      "min": [
        -0.9992918372154236,
        -0.9994083046913147,
        -0.9972389936447144
      ],
      "type": "VEC3"
    },
    {
      "bufferView": 2,
      "componentType": 5126,
      "count": 4696,
      "max": [
        0.8995747566223145,
        1.0
      ],
      "min": [
        0.0,
        0.0
      ],
      "type": "VEC2"
    },
    {
      "bufferView": 1,
      "componentType": 5125,
      "count": 22446,
      "type": "SCALAR"
    },
    {
      "bufferView": 5,
      "componentType": 5126,
      "count": 31,
      "max": [
        13.108207702636719,
        0.9595996737480164,
        0.8601093888282776,
        0.0,
        0.9934124946594238,
        13.108205795288086,
        0.994222104549408,
        0.0,
        0.9632623791694641,
        0.9957464337348938,
        13.10820484161377,
        0.0,
        15.598477363586426,
        16.732179641723633,
        12.570054054260254,
        1.0
      ],
      "min": [
        -0.9935495853424072,
        -0.9552085995674133,
        -0.8007538318634033,
        0.0,
        -0.9999001026153564,
        -0.9976039528846741,
        -0.5457003712654114,
        0.0,
        -0.9580960273742676,
        -0.28120970726013184,
        -0.22928833961486816,
        0.0,
        -15.619245529174805,
        -19.633676528930664,
        -1.7987533807754517,
        1.0
      ],
      "type": "MAT4"
    },
    {
      "bufferView": 0,
      "componentType": 5123,
      "count": 4696,
      "type": "VEC4"
    },
    {
      "bufferView": 4,
      "componentType": 5126,
      "count": 4696,
      "max": [
        1.0,
        0.49204912781715393,
        0.30053403973579407,
        0.043490637093782425
      ],
      "min": [
        0.3604944348335266,
        0.0,
        0.0,
        0.0
      ],
      "type": "VEC4"
    }
  ],
  "asset": {
    "extras": {
      "author": "itsbishoperic (https://sketchfab.com/itsbishoperic)",
      "license": "CC-BY-4.0 (http://creativecommons.org/licenses/by/4.0/)",
      "source": "https://sketchfab.com/3d-models/kodoma-wobble-689f7129cf774ee1bd5d9aaf9251464c",
      "title": "Kodoma (wobble)"
    },
    "generator": "Sketchfab-15.20.0",
    "version": "2.0"
  },
  "bufferViews": [
    {
      "buffer": 0,
      "byteLength": 37568,
      "byteStride": 8,
      "name": "shortBufferViews",
      "target": 34962
    },
    {
      "buffer": 0,
      "byteLength": 89784,
      "byteOffset": 37568,
      "name": "floatBufferViews",
      "target": 34963
    },
    {
      "buffer": 0,
      "byteLength": 37568,
      "byteOffset": 127352,
      "byteStride": 8,
      "name": "floatBufferViews",
      "target": 34962
    },
    {
      "buffer": 0,
      "byteLength": 112704,
      "byteOffset": 164920,
      "byteStride": 12,
      "name": "floatBufferViews",
      "target": 34962
    },
    {
      "buffer": 0,
      "byteLength": 75136,
      "byteOffset": 277624,
      "byteStride": 16,
      "name": "floatBufferViews",
      "target": 34962
    },
    {
      "buffer": 0,
      "byteLength": 1984,
      "byteOffset": 352760,
      "name": "floatBufferViews"
    }
  ],
  "buffers": [
    {
      "byteLength": 354744,
      "uri": "scene.bin"
    }
  ],
  "images": [
    {
      "uri": "textures/Material.004_baseColor.png"
    }
  ],
  "materials": [
    {
      "doubleSided": true,
      "emissiveFactor": [
        0.3620519213938055,
        0.3620519213938055,
        0.3620519213938055
      ],
      "emissiveTexture": {
        "index": 0
      },
      "name": "Material.004",
      "pbrMetallicRoughness": {
        "baseColorTexture": {
          "index": 0
        },
        "metallicFactor": 0.0,
        "roughnessFactor": 0.8211145618000169
      }
    }
  ],
  "meshes": [
    {
      "name": "Kodoma.001_Material.004_0",
      "primitives": [
        {
          "attributes": {
            "JOINTS_0": 5,
            "NORMAL": 1,
            "POSITION": 0,
            "TEXCOORD_0": 2,
            "WEIGHTS_0": 6
          },
          "indices": 3,
          "material": 0,
          "mode": 4
        }
      ]
    }
  ],
  "nodes": [
    {
      "children": [
        1
      ],
      "matrix": [
        1.0,
        0.0,
        0.0,
        0.0,
        0.0,
        2.220446049250313e-16,
        -1.0,
        0.0,
        0.0,
        1.0,
        2.220446049250313e-16,
        0.0,
        0.0,
        0.0,
        0.0,
        1.0
      ],
      "name": "Sketchfab_model"
    },
    {
      "children": [
        2
      ],
      "matrix": [
        0.009999999776482582,
        0.0,
        0.0,
        0.0,
        0.0,
        0.0,
        0.009999999776482582,
        0.0,
        0.0,
        -0.009999999776482582,
        0.0,
        0.0,
        0.0,
        0.0,
        0.0,
        1.0
      ],
      "name": "09121fa56e6e46adb16d72bec82a33fa.fbx"
    },
    {
      "children": [
        3
      ],
      "name": "RootNode"
    },
    {
      "children": [
        4
      ],
      "matrix": [
        12.572652245445205,
        0.6812017996184957,
        -3.645471683725115,
        0.0,
        -0.7409494365325843,
        13.086785539938216,
        -0.10998788928894339,
        0.0,
        3.6337982468134356,
        0.31155668004638787,
        12.590610664550022,
        0.0,
        0.0,
        0.0,
        0.0,
        1.0
      ],
      "name": "Armature.021"
    },
    {
      "children": [
        5,
        37,
        36
      ],
      "name": "Object_4"
    },
    {
      "children": [
        6
      ],
      "name": "_rootJoint"
    },
    {
      "children": [
        7,
        24,
        30
      ],
      "name": "mixamorig:Hips_01",
      "rotation": [
        -3.520636226994611e-08,
        -1.4721938441653037e-06,
        1.526380583527498e-05,
        1.0
      ],
      "translation": [
        -0.00010599195957183838,
        9.266839027404785,
        -0.06548672914505005
      ]
    },
    {
      "children": [
        8
      ],
      "name": "mixamorig:Spine_02",
      "rotation": [
        -0.053156256675720215,
        0.014302579686045647,
        0.04422001540660858,
        0.9975041151046753
      ],
      "scale": [
        0.9999999403953552,
        0.9999998807907104,
        1.0
      ],
      "translation": [
        -2.9265836420933056e-09,
        1.7803230285644531,
        -0.19539567828178406
      ]
    },
    {
      "children": [
        9
      ],
      "name": "mixamorig:Spine1_03",
      "rotation": [
        -0.08428391814231873,
        -0.011205902323126793,
        0.05788954719901085,
        0.9946956634521484
      ],
      "scale": [
        1.0,
        0.9999998807907104,
        1.0
      ],
      "translation": [
        7.078051567077637e-08,
        2.089515209197998,
        3.725290298461914e-08
      ]
    },
    {
      "children": [
        10,
        14,
        19
      ],
      "name": "mixamorig:Spine2_04",
      "rotation": [
        -0.00038015531026758254,
        0.0012820933479815722,
        -0.004085136577486992,
        0.9999907612800598
      ],
      "translation": [
        2.8312206268310547e-07,
        2.3880183696746826,
        -2.2351741790771484e-07
      ]
    },
    {
      "children": [
        11
      ],
      "name": "mixamorig:Neck_05",
      "rotation": [
        0.05463053658604622,
        -1.3407788213015692e-09,
        1.2824840078806687e-09,
        0.9985066652297974
      ],
      "translation": [
        -4.0978193283081055e-08,
        2.686519145965576,
        3.5762786865234375e-07
      ]
    },
    {
      "children": [
        12
      ],
      "name": "mixamorig:Head_06",
      "rotation": [
        0.13796290755271912,
        0.011721426621079445,
        0.01647208444774151,
        0.9902310371398926
      ],
      "translation": [
        1.2665987014770508e-07,
        1.4735536575317383,
        0.31918489933013916
      ]
    },
    {
      "children": [
        13
      ],
      "name": "mixamorig:HeadTop_End_07",
      "rotation": [
        -3.725290298461914e-09,
        -4.656613428188905e-10,
        -6.752088665962219e-09,
        1.0
      ],
      "translation": [
        5.997717380523682e-07,
        8.07223129272461,
        1.7485144138336182
      ]
    },
    {
      "name": "mixamorig:HeadTop_End_end_026",
      "rotation": [
        1.3877787807814457e-17,
        -1.925929944387236e-34,
        -1.3877787807814457e-17,
        1.0
      ],
      "translation": [
        8.881784197001252e-16,
        8.259429931640625,
        0.0
      ]
    },
    {
      "children": [
        15
      ],
      "name": "mixamorig:LeftShoulder_08",
      "rotation": [
        0.009152998216450214,
        0.023175250738859177,
        -0.7694624066352844,
        0.638205885887146
      ],
      "scale": [
        0.9999997615814209,
        0.9999997615814209,
        1.0
      ],
      "translation": [
        0.824872612953186,
        2.9029932022094727,
        0.028799813240766525
      ]
    },
    {
      "children": [
        16
      ],
      "name": "mixamorig:LeftArm_09",
      "rotation": [
        0.39443957805633545,
        0.597786545753479,
        -0.45899373292922974,
        0.5257313251495361
      ],
      "scale": [
        0.9999999403953552,
        0.9999999403953552,
        1.0
      ],
      "translation": [
        1.7564743757247925e-06,
        2.773196220397949,
        -2.0302832126617432e-07
      ]
    },
    {
      "children": [
        17
      ],
      "name": "mixamorig:LeftForeArm_010",
      "rotation": [
        0.023378193378448486,
        -0.7102461457252502,
        -0.02792404405772686,
        0.7030108571052551
      ],
      "scale": [
        1.0000001192092896,
        1.0000001192092896,
        1.0000001192092896
      ],
      "translation": [
        -7.450580152834618e-09,
        6.189345359802246,
        1.1175870895385742e-07
      ]
    },
    {
      "children": [
        18
      ],
      "name": "mixamorig:LeftHand_011",
      "rotation": [
        9.313225746154785e-09,
        1.0989607091005382e-07,
        4.0989831973092805e-07,
        1.0
      ],
      "scale": [
        1.0,
        1.0000001192092896,
        0.9999998807907104
      ],
      "translation": [
        -5.587935447692871e-08,
        3.1142005920410156,
        1.341104507446289e-07
      ]
    },
    {
      "name": "mixamorig:LeftHand_end_027",
      "rotation": [
        -1.734723475976807e-17,
        -8.326672684688674e-17,
        2.7755575615628914e-17,
        1.0
      ],
      "translation": [
        0.0,
        3.1142005920410156,
        0.0
      ]
    },
    {
      "children": [
        20
      ],
      "name": "mixamorig:RightShoulder_012",
      "rotation": [
        0.009947653859853745,
        -0.025812145322561264,
        0.76508629322052,
        0.6433333158493042
      ],
      "scale": [
        1.0,
        1.000000238418579,
        1.0000001192092896
      ],
      "translation": [
        -0.8248727321624756,
        2.9040849208831787,
        0.01883784309029579
      ]
    },
    {
      "children": [
        21
      ],
      "name": "mixamorig:RightArm_013",
      "rotation": [
        0.35966527462005615,
        -0.6296606063842773,
        0.43364179134368896,
        0.5349048376083374
      ],
      "scale": [
        1.0,
        1.0000001192092896,
        0.9999999403953552
      ],
      "translation": [
        5.066394805908203e-07,
        2.7731993198394775,
        -1.9371509552001953e-07
      ]
    },
    {
      "children": [
        22
      ],
      "name": "mixamorig:RightForeArm_014",
      "rotation": [
        -0.24368278682231903,
        0.652825117111206,
        -0.2332027554512024,
        0.6782732009887695
      ],
      "scale": [
        1.000000238418579,
        1.0000001192092896,
        1.0000001192092896
      ],
      "translation": [
        6.705522537231445e-08,
        6.188950538635254,
        5.736947059631348e-07
      ]
    },
    {
      "children": [
        23
      ],
      "name": "mixamorig:RightHand_015",
      "rotation": [
        -2.1420419216156006e-08,
        -7.12461769580841e-08,
        2.6135243302860545e-08,
        1.0
      ],
      "scale": [
        0.9999998807907104,
        0.9999998807907104,
        1.0
      ],
      "translation": [
        6.07222318649292e-07,
        3.1142096519470215,
        -2.8312206268310547e-07
      ]
    },
    {
      "name": "mixamorig:RightHand_end_028",
      "rotation": [
        -1.3877787807814457e-17,
        -1.3877787807814457e-17,
        -4.163336342344337e-17,
        1.0
      ],
      "translation": [
        1.7763568394002505e-15,
        3.114210605621338,
        6.661338147750939e-16
      ]
    },
    {
      "children": [
        25
      ],
      "name": "mixamorig:LeftUpLeg_016",
      "rotation": [
        -0.0028548045083880424,
        0.024776823818683624,
        0.9996466040611267,
        -0.009202365763485432
      ],
      "scale": [
        0.9999836087226868,
        0.9999996423721313,
        0.9999900460243225
      ],
      "translation": [
        2.0160884857177734,
        -0.9885430335998535,
        0.00721750408411026
      ]
    },
    {
      "children": [
        26
      ],
      "name": "mixamorig:LeftLeg_017",
      "rotation": [
        -0.10206589102745056,
        0.0006046714261174202,
        -0.023217270150780678,
        0.9945064783096313
      ],
      "scale": [
        1.0000001192092896,
        0.9999998807907104,
        0.9999999403953552
      ],
      "translation": [
        1.8189894035458565e-07,
        4.1226420402526855,
        3.725290298461914e-09
      ]
    },
    {
      "children": [
        27
      ],
      "name": "mixamorig:LeftFoot_018",
      "rotation": [
        0.43860170245170593,
        0.17994658648967743,
        -0.035721223801374435,
        0.8797566294670105
      ],
      "scale": [
        0.9999999403953552,
        1.0,
        0.9999999403953552
      ],
      "translation": [
        8.89413058757782e-08,
        2.798074722290039,
        -2.2351741790771484e-08
      ]
    },
    {
      "children": [
        28
      ],
      "name": "mixamorig:LeftToeBase_019",
      "rotation": [
        0.38157179951667786,
        -0.11714347451925278,
        0.04882156848907471,
        0.9155855178833008
      ],
      "scale": [
        1.0000001192092896,
        0.9999998211860657,
        1.0
      ],
      "translation": [
        -5.698530003428459e-08,
        1.901431918144226,
        6.51925802230835e-08
      ]
    },
    {
      "children": [
        29
      ],
      "name": "mixamorig:LeftToe_End_020",
      "rotation": [
        2.0489096641540527e-08,
        -2.578599378466606e-06,
        1.9615981727838516e-08,
        1.0
      ],
      "scale": [
        1.0,
        1.0,
        1.0000001192092896
      ],
      "translation": [
        -2.3283064365386963e-08,
        0.6725772023200989,
        7.450580596923828e-09
      ]
    },
    {
      "name": "mixamorig:LeftToe_End_end_029",
      "rotation": [
        3.2526065174565133e-19,
        1.4013313079375145e-17,
        6.938893903907228e-18,
        1.0
      ],
      "translation": [
        -2.220446049250313e-16,
        0.6725736260414124,
        0.0
      ]
    },
    {
      "children": [
        31
      ],
      "name": "mixamorig:RightUpLeg_021",
      "rotation": [
        0.002764652483165264,
        0.024938778951764107,
        0.9996426105499268,
        0.009223870001733303
      ],
      "scale": [
        0.9999732375144958,
        0.9999995231628418,
        0.9999846816062927
      ],
      "translation": [
        -2.0160884857177734,
        -0.9885439276695251,
        -0.002099879551678896
      ]
    },
    {
      "children": [
        32
      ],
      "name": "mixamorig:RightLeg_022",
      "rotation": [
        -0.10079731792211533,
        -0.0006032243254594505,
        0.02320309728384018,
        0.9946361780166626
      ],
      "scale": [
        0.9999998807907104,
        1.0000001192092896,
        0.9999999403953552
      ],
      "translation": [
        1.8486753106117249e-07,
        4.121971607208252,
        -1.0244548320770264e-08
      ]
    },
    {
      "children": [
        33
      ],
      "name": "mixamorig:RightFoot_023",
      "rotation": [
        0.4372592866420746,
        -0.18053975701332092,
        0.03574744239449501,
        0.8803021311759949
      ],
      "translation": [
        2.153683453798294e-08,
        2.7974069118499756,
        1.862645149230957e-08
      ]
    },
    {
      "children": [
        34
      ],
      "name": "mixamorig:RightToeBase_024",
      "rotation": [
        0.3818053901195526,
        0.11887069046497345,
        -0.049592819064855576,
        0.915224015712738
      ],
      "scale": [
        1.0,
        1.0000001192092896,
        0.9999998807907104
      ],
      "translation": [
        1.4621764421463013e-07,
        1.9010664224624634,
        -2.9802322387695313e-08
      ]
    },
    {
      "children": [
        35
      ],
      "name": "mixamorig:RightToe_End_025",
      "rotation": [
        -1.303851515643828e-08,
        4.239846020936966e-06,
        -2.8405340302128934e-08,
        1.0
      ],
      "scale": [
        0.9999999403953552,
        1.0,
        1.0000001192092896
      ],
      "translation": [
        -2.561137080192566e-08,
        0.6789712905883789,
        -7.450580596923828e-09
      ]
    },
    {
      "name": "mixamorig:RightToe_End_end_00",
      "rotation": [
        -6.938893903907228e-18,
        -6.938893903907228e-18,
        2.7755575615628914e-17,
        1.0
      ],
      "translation": [
        0.0,
        0.6789658665657043,
        0.0
      ]
    },
    {
      "matrix": [
        12.572653403816481,
        0.6812018622346664,
        -3.645472096542443,
        0.0,
        -0.7409494173445462,
        13.086785318547996,
        -0.10998786268391718,
        0.0,
        3.6337983404770995,
        0.311556660145901,
        12.590610718100912,
        0.0,
        3.6675086221293896e-06,
        3.734871413030305e-06,
        -2.9816705122698295e-06,
        1.0
      ],
      "name": "Object_36"
    },
    {
      "mesh": 0,
      "name": "Object_37",
      "skin": 0
    }
  ],
  "samplers": [
    {
      "magFilter": 9729,
      "minFilter": 9987,
      "wrapS": 10497,
      "wrapT": 10497
    }
  ],
  "scene": 0,
  "scenes": [
    {
      "name": "Sketchfab_Scene",
      "nodes": [
        0
      ]
    }
  ],
  "skins": [
    {
      "inverseBindMatrices": 4,
      "joints": [
        5,
        6,
        7,
        8,
        9,
        10,
        11,
        12,
        13,
        14,
        15,
        16,
        17,
        18,
        19,
        20,
        21,
        22,
        23,
        24,
        25,
        26,
        27,
        28,
        29,
        30,
        31,
        32,
        33,
        34,
        35
      ],
      "skeleton": 5
    }
  ],
  "textures": [
    {
      "sampler": 0,
      "source": 0
    }
  ]
}
